<svg xmlns="http://www.w3.org/2000/svg" xmlns:xlink="http://www.w3.org/1999/xlink"><defs><symbol viewBox="0 0 47 16" id="Arrow-next"><path d="M46.707 7.293a1 1 0 010 1.414l-6.364 6.364a1 1 0 01-1.414-1.414L44.586 8l-5.657-5.657A1 1 0 0140.343.93l6.364 6.364zM0 7h46v2H0V7z" /></symbol><symbol viewBox="0 0 47 16" id="Arrow-prev"><path d="M.293 7.293a1 1 0 000 1.414l6.364 6.364a1 1 0 001.414-1.414L2.414 8l5.657-5.657A1 1 0 006.657.93L.293 7.293zM47 7H1v2h46V7z" /></symbol><symbol viewBox="0 0 17 35" id="Line"><path d="M15.545.203l-15.088 34" /></symbol><symbol viewBox="0 0 57 32" id="auto"><path d="M10.495 26.252h-.01c-.453 0-.817.393-.817.877s.373.877.827.877c.454 0 .822-.393.822-.877s-.368-.877-.822-.877zM17.523 26.252h-.009c-.454 0-.817.393-.817.877s.372.877.826.877c.454 0 .822-.393.822-.877s-.368-.877-.822-.877zM46.515 26.252h-.009c-.454 0-.818.393-.818.877s.373.877.827.877c.454 0 .822-.393.822-.877s-.368-.877-.822-.877z" /><path d="M55.358 15.646l-1.105-1.18-2.227-7.128a.873.873 0 00.573-.836c0-.484-.368-.877-.822-.877h-7.963v-3.81c0-1-.763-1.815-1.7-1.815H1.7C.763 0 0 .814 0 1.815v20.627c0 1 .763 1.814 1.7 1.814h.936v1.935c0 1.001.762 1.815 1.7 1.815H6.23c.385 2.134 2.147 3.75 4.257 3.75 1.444 0 2.726-.758 3.514-1.921.788 1.163 2.07 1.921 3.514 1.921 2.11 0 3.872-1.616 4.257-3.75H42.25c.385 2.134 2.147 3.75 4.257 3.75 2.39 0 4.336-2.076 4.336-4.627l-.002-.06h3.573c.937 0 1.7-.814 1.7-1.815v-7.662a2.83 2.83 0 00-.755-1.946zM6.228 26.252H4.337c-.031 0-.056-.027-.056-.06v-1.936h2.81a4.756 4.756 0 00-.861 1.996zm4.258 3.75c-1.485 0-2.692-1.289-2.692-2.873 0-1.578 1.198-2.863 2.675-2.873h.034c1.476.01 2.675 1.295 2.675 2.873 0 1.584-1.208 2.873-2.692 2.873zm7.028 0c-1.484 0-2.692-1.289-2.692-2.873 0-1.578 1.199-2.863 2.675-2.873h.034c1.477.01 2.675 1.295 2.675 2.873 0 1.584-1.207 2.873-2.692 2.873zm24.735-3.75H21.771a4.756 4.756 0 00-.861-1.996h15.932c.454 0 .822-.392.822-.877 0-.484-.368-.877-.822-.877H1.7c-.03 0-.056-.027-.056-.06V1.815c0-.034.025-.06.056-.06h40.413c.031 0 .057.026.057.06v20.687h-1.814c-.453 0-.822.393-.822.877 0 .485.369.877.822.877h2.754a4.756 4.756 0 00-.861 1.996zM52.687 15h-5.302c-.032 0-.057-.027-.057-.06V11.13h4.15L52.687 15zm-6.181 15.001c-1.484 0-2.692-1.289-2.692-2.873 0-1.578 1.199-2.863 2.675-2.873h.023c1.482.003 2.686 1.29 2.686 2.873 0 1.584-1.208 2.873-2.692 2.873zm7.963-4.747c0 .033-.025.06-.056.06h-3.918c-.663-1.652-2.201-2.813-3.99-2.813h-2.691V7.44c0-.033.025-.06.056-.06h6.436l.624 1.995h-4.424c-.454 0-.822.393-.822.878v4.688c0 1 .763 1.814 1.7 1.814h6.688l.123.132c.177.188.274.439.274.705v2.097h-.935c-.454 0-.822.393-.822.878 0 .484.368.877.822.877h.935v3.81z" /></symbol><symbol viewBox="0 0 64 64" id="hands"><path d="M60.4 28.3l-10.5-15c-.5-.7-1.2-1.1-2-1.2-.8-.1-1.6.1-2.2.6l-4.2 3.4c-.6.5-1 1.2-1.1 2v.8c-.4 0-.8.1-1.2.1-.3 0-.5.1-.8.1-1.6.1-3.3.6-5.1 1.3l-1.2.6c-1.8-.9-3.5-1.5-5.2-1.8-1.2-.2-2.3-.3-3.3-.1.2-1.1-.2-2.3-1.1-3l-4.2-3.4c-.6-.5-1.4-.7-2.2-.6-.8.1-1.5.5-2 1.2l-10.5 15c-.9 1.3-.7 3.2.6 4.3L8.4 36c.5.4 1.1.6 1.8.6h.4c.5-.1.9-.3 1.3-.6.3.9.8 1.8 1.5 2.7-.2 1 0 2.1.5 2.9.7 1.2 1.9 1.9 3.3 1.9.4 0 .7-.1 1-.1.1.6.3 1.1.6 1.6.7 1.2 1.9 1.9 3.3 1.9.7 0 1.4-.2 2.1-.6.1.4.3.8.5 1.2.6.9 1.4 1.6 2.4 1.8.5.1 1 .1 1.4 0 .1.5.3 1.1.6 1.6.7 1.2 1.9 1.9 3.3 1.9.8 0 1.5-.2 2.1-.7l2.8-1.9c1-.7 1.6-1.8 1.7-3 .7-.1 1.3-.5 1.8-.9s.8-1 1-1.5c.3.1.6.2 1 .2.7.1 1.4-.1 2-.4l.8-.5.4-.3.4-.5c0-.1.1-.1.1-.2 1.4 1.4 3.7 1.4 5.2.1 1.3-1.2 1.7-3.2 1-4.8.1-.6.2-1.2.2-1.8.9.4 2 .2 2.8-.5l4.2-3.4c.6-.5 1-1.2 1.1-2 .1-1-.1-1.8-.6-2.4zm-15.2-6.6c-.1-.1-.3-.4-.4-.6-.2-.3-.3-.5-.4-.6l-1.2-1.8c-.1-.2-.1-.5.1-.6l4.2-3.4c.1-.1.3-.1.4.1l10.5 15c.1.1.1.2.1.3 0 .1-.1.2-.1.3L54 33.9c-.1 0-.1.1-.2.1 0 0-.1 0-.2-.1l-5.8-8.3-2.6-3.9zm-2.7 11.9c-.1-.2-.1-.4-.1-.6 0-.4.2-.7.4-1 .5-.5 1.3-.4 1.7.2l5.4 6.9c.5.6.4 1.5-.1 2-.2.2-.6.3-.9.3-.3 0-.6-.2-.8-.5l-5.6-7.3zM20.9 18.7l-2.1 3s-.1.1-.1.2l-8.3 11.9c-.1.1-.1.1-.2.1H10l-4.2-3.4c-.2-.1-.2-.4-.1-.6l10.5-15c.1-.1.1-.1.2-.1 0 0 .1 0 .1.1l4.2 3.4c.3 0 .3.2.2.4zm-6.6 14.1l7.3-10.4c2.4-1.2 5.2-.7 7.6.3-.6.4-1.1.7-1.2.8-1.7 1.2-3 2.6-3.6 4-.7 1.4-.8 2.8-.2 3.9.6 1 1.7 1.6 3 1.7 1.2.1 2.6-.3 4.1-1.1l4.9-3.1c.4-.2 1.1-.4 1.3-.3.1 0 .2.3.2.3.1.3.2 1 .9 1.7.3.3.8.8 1.5 1.1 0 .1-.1.2-.1.3-1.1-.2-2.3.1-3.2.9-.5.4-.8 1-1 1.5-1.3-.5-2.7-.2-3.8.7-.5-.6-1.2-1-2-1.2-1-.2-2 0-2.9.6l-1 .7c-.1-.5-.3-1-.5-1.4-.6-.9-1.4-1.6-2.4-1.8-1-.2-2.1 0-3 .6l-5 3.5c-.1 0-.1.1-.2.1-.8-1.3-1-2.4-.7-3.4zm32.3-2.3c-.8-.9-1.9-1.5-3-1.5-.5 0-1 .1-1.5.3-1.6-.2-1.8-1-1.8-1v-.1c-.3-1.3-1.1-1.9-1.7-2.2-1.6-.7-3.5.3-3.7.4l-4.8 3.1c-1 .6-2 .9-2.7.8-.4 0-.7-.1-.8-.3-.1-.2-.1-.7.2-1.4.5-1 1.5-2 2.8-3l.1-.1c.5-.4 2.3-1.7 4.7-2.7 2.3-1 5.5-1.8 8.1-.5l7.3 10.4c.2.7.4 1.4.4 2.1l-3.6-4.3zm-30.4 9.7c-.2-.3-.3-.7-.2-1.1.1-.4.3-.7.6-.9l5-3.5c.2-.1.4-.2.6-.2.4 0 .8.2 1 .6.4.7.2 1.6-.4 2l-5 3.5c-.3.2-.6.2-.9.2-.3-.1-.5-.3-.7-.6zm4.9 3.4c-.4-.7-.2-1.6.4-2l7.1-4.9c.2-.1.4-.2.6-.2h.2c.3.1.6.3.8.6.4.7.2 1.6-.4 2l-4 2.7c-.1.1-.2.2-.4.3L22.7 44c-.3.2-.6.2-.9.2-.3-.1-.6-.3-.7-.6zm5.6 1.3c.1-.3.2-.5.4-.7l3.2-2.2c.2-.1.4-.1.7 0 .3.1.6.3.8.6.2.3.3.7.2 1.1-.1.3-.2.5-.3.7l-3 2.1c-.3.2-.6.2-.9.2-.3-.1-.6-.3-.8-.6-.3-.4-.4-.8-.3-1.2zm4.6 4.5c-.3-.6-.3-1.3.2-1.8l3-2.1c.3-.2.6-.2.9-.2.3.1.6.3.8.6.4.7.2 1.6-.4 2l-2.8 2c-.3.2-.6.2-.9.2-.3-.1-.6-.3-.8-.7zm5.1-6.5l-3-3.7c-.2-.3-.3-.6-.3-.9 0-.4.2-.8.5-1.1.2-.2.5-.3.9-.3.3 0 .6.2.8.5l3.9 4.9c.2.3.3.7.3 1.1 0 .4-.2.7-.5 1-.2.2-.4.3-.7.3-.4-1-1.1-1.5-1.9-1.8zm2.1-8.1c.2-.2.5-.3.8-.3.4 0 .7.2.9.5l4.1 5.4c.1.2.1.4.1.6 0 .4-.2.7-.5 1-.2.2-.5.3-.9.3-.3 0-.6-.2-.8-.5l-3.9-4.9c-.2-.3-.3-.7-.3-1.1.1-.4.3-.7.5-1z" /><path d="M11.6 29.2c-.1-.4-.3-1-.6-1.4-.4-.4-.9-.8-1.5-.8C8.3 27 7 28.3 7 29.4v.1c0 .6.4 1.1.8 1.5.4.4 1 .6 1.6.6.6 0 1.2-.2 1.6-.6.3-.3.6-.7.6-1.2v-.6zm-2.7.3c0-.2.1-.3.2-.4.1-.1.3-.2.4-.2.3 0 .6.3.6.6s-.3.6-.6.6c-.4 0-.6-.3-.6-.6zM54.3 32.2c.6 0 1.1-.2 1.5-.6.3-.3.5-.7.6-1.2v-.6c-.1-.4-.3-.8-.6-1.1-.4-.4-.9-.6-1.5-.6-1.2 0-2.3.8-2.3 2v.1c0 .6.3 1.1.7 1.5.4.3 1 .5 1.6.5zm-.1-1.6c-.3 0-.6-.3-.6-.6 0-.2.1-.3.2-.4.1-.1.3-.2.4-.2.3 0 .6.3.6.6 0 .4-.2.6-.6.6z" /></symbol><symbol viewBox="0 0 32 32" id="key"><path d="M8.737 30.128a.436.436 0 01-.051-.003l-5.766-.576-.021-.002-1.285-.129a.32.32 0 01-.054-.008h.001a.51.51 0 01-.267-.153v-.001l-.001-.001-.001-.001-.001-.001v-.001a.5.5 0 01-.082-.125v-.002h-.001a.504.504 0 01-.042-.239l.377-5.793a.506.506 0 01.146-.322l10.463-10.397a9.47 9.47 0 011.717-7.545.5.5 0 01.799.601 8.471 8.471 0 00-1.482 6.995.502.502 0 01-.135.466L2.528 23.347l-.333 5.125.569.057 11.274-11.274a.497.497 0 000-.707.512.512 0 00-.707 0l-9.069 9.068a.5.5 0 01-.707-.707l9.069-9.068a1.503 1.503 0 012.121 0c.283.282.439.658.439 1.06 0 .4-.156.778-.439 1.062L4.05 28.657l4.244.424.299-2.69a.5.5 0 01.144-.298l2.475-2.476a.5.5 0 01.354-.146h1.914l4.766-4.766a.498.498 0 01.513-.12c3.084 1.032 6.426.254 8.718-2.038 3.313-3.314 3.313-8.708 0-12.021-2.977-2.977-7.754-3.316-11.109-.792a.5.5 0 11-.601-.799c3.755-2.823 9.092-2.442 12.418.884 3.704 3.704 3.704 9.73 0 13.436a9.433 9.433 0 01-9.445 2.373l-4.697 4.697a.5.5 0 01-.354.146h-1.914l-2.204 2.205-.334 3.008a.507.507 0 01-.5.444zm15.555-18.923a3.495 3.495 0 01-2.475-1.022 3.477 3.477 0 01-1.025-2.475 3.48 3.48 0 011.025-2.476 3.51 3.51 0 014.95 0 3.507 3.507 0 010 4.95 3.49 3.49 0 01-2.475 1.023zm-1.768-1.729a2.504 2.504 0 003.536 0 2.505 2.505 0 000-3.536 2.502 2.502 0 00-3.536 0 2.505 2.505 0 000 3.536z" /><path d="M2.95 29.55a.5.5 0 01-.354-.853l11.442-11.442a.497.497 0 000-.707.5.5 0 00-.707 0l-9.069 9.068a.5.5 0 01-.707-.707l9.069-9.068a1.503 1.503 0 012.121 0c.283.282.439.658.439 1.06 0 .4-.156.778-.439 1.062L3.304 29.403a.5.5 0 01-.354.147z" /><circle cx="14.5" cy="1.5" r=".5" /><circle cx="30.5" cy="17.5" r=".5" /><path d="M21.5 22.5c-.566 0-1.138-.04-1.696-.119a.5.5 0 01-.425-.565.505.505 0 01.565-.425c3.165.446 6.44-.525 8.841-2.649a.5.5 0 11.662.75A11.986 11.986 0 0121.5 22.5zM10.113 12.627a.5.5 0 01-.494-.43A12.159 12.159 0 019.5 10.5a11.96 11.96 0 013.153-8.107.5.5 0 01.736.676A10.965 10.965 0 0010.5 10.5c0 .521.037 1.044.109 1.557a.5.5 0 01-.496.57z" /></symbol><symbol viewBox="0 0 100.353 100.352" id="location"><path d="M58.23 69.992l14.993-24.108c.049-.078.09-.16.122-.245a26.697 26.697 0 003.956-13.969c0-14.772-12.018-26.79-26.79-26.79S23.72 16.898 23.72 31.67c0 4.925 1.369 9.75 3.96 13.975.03.074.065.146.107.216l14.455 24.191c-11.221 1.586-18.6 6.2-18.6 11.797 0 6.935 11.785 12.366 26.829 12.366S77.3 88.783 77.3 81.849c.001-5.623-7.722-10.34-19.07-11.857zM30.373 44.294A23.708 23.708 0 0126.72 31.67c0-13.118 10.672-23.79 23.791-23.79 13.118 0 23.79 10.672 23.79 23.79 0 4.457-1.263 8.822-3.652 12.624-.05.08-.091.163-.124.249L54.685 70.01c-.238.365-.285.448-.576.926l-4 6.432-19.602-32.804a1.508 1.508 0 00-.134-.27zm20.099 46.921c-14.043 0-23.829-4.937-23.829-9.366 0-4.02 7.37-7.808 17.283-8.981l4.87 8.151c.269.449.751.726 1.274.73h.013c.518 0 1-.268 1.274-.708l5.12-8.232C66.548 73.9 74.3 77.784 74.3 81.849c.001 4.43-9.785 9.366-23.828 9.366z" /><path d="M60.213 31.67c0-5.371-4.37-9.741-9.741-9.741s-9.741 4.37-9.741 9.741 4.37 9.741 9.741 9.741c5.371 0 9.741-4.37 9.741-9.741zm-16.482 0c0-3.717 3.024-6.741 6.741-6.741s6.741 3.024 6.741 6.741-3.023 6.741-6.741 6.741-6.741-3.024-6.741-6.741z" /></symbol><symbol viewBox="0 0 57 58" id="manager"><path d="M46.299 49.76l-2.133-6.4a6.45 6.45 0 00-4.966-4.307l-6.158-1.12v-.478a9.274 9.274 0 002.747-2.439h1.86a2.768 2.768 0 002.764-2.764V21.194c0-6.605-5.374-11.98-11.979-11.98-6.605 0-11.979 5.375-11.979 11.98v6.45a3.692 3.692 0 002.939 3.61 9.232 9.232 0 004.433 6.201v.478l-6.16 1.12a6.45 6.45 0 00-4.964 4.306l-.369 1.107-3.138-3.139a.923.923 0 010-1.303l3.64-3.64-6.832-6.831-4.114 4.113a6.408 6.408 0 00-1.889 4.562c0 1.723.67 3.342 1.889 4.56l12.454 12.454a6.41 6.41 0 004.561 1.89 6.38 6.38 0 004.532-1.862l4.489-4.113-1.4-1.397h19.773zm-7.728-17.508a.922.922 0 01-.922.921h-.775c.267-.609.47-1.251.6-1.92a3.65 3.65 0 001.097-.435v1.434zm-.922-3.02v-3.174c.548.32.922.907.922 1.586 0 .68-.374 1.268-.922 1.587zm-18.43 0a1.837 1.837 0 01-.921-1.588c0-.679.373-1.267.921-1.586v3.173zm0-6.195v1.052a3.656 3.656 0 00-.921.382v-3.277c0-5.589 4.547-10.136 10.136-10.136 5.589 0 10.137 4.547 10.137 10.136v3.277a3.617 3.617 0 00-.922-.382v-1.052h-.921a10.138 10.138 0 01-7.215-2.988l-1.079-1.08-1.079 1.08a10.139 10.139 0 01-7.214 2.988h-.922zm1.843 6.45v-4.642a11.947 11.947 0 007.372-3.275 11.942 11.942 0 007.372 3.275v4.642c0 1.344-.367 2.6-.997 3.686h-6.375v1.843h4.86a7.333 7.333 0 01-4.86 1.843c-4.064 0-7.372-3.307-7.372-7.372zm10.137 8.79v.044l-2.765 2.764-2.764-2.764v-.044a9.201 9.201 0 005.529 0zm-16.75 5.665a4.61 4.61 0 013.548-3.077l6.44-1.17 3.997 3.996 3.996-3.995 6.44 1.17a4.607 4.607 0 013.547 3.077l1.326 3.974h-19.06l-3.59-3.59-3.988 3.608a.941.941 0 01-1.302 0l-2.013-2.012.66-1.981zM6.004 32.159l4.226 4.226-1.001 1-4.226-4.225 1-1.001zM22.16 53.94a4.584 4.584 0 01-3.258 1.348c-1.23 0-2.387-.48-3.258-1.35L3.191 41.486a4.578 4.578 0 01-1.349-3.257c0-1.231.48-2.389 1.35-3.259l.506-.507 4.226 4.226-.033.033a2.77 2.77 0 000 3.91l6.608 6.608a2.75 2.75 0 001.955.81c.74 0 1.433-.287 1.921-.777l.07-.062 4.245 4.245-.53.485zm1.889-1.733l-4.236-4.236 1.217-1.1 4.229 4.229-1.21 1.107zM54.235 0h-12.9a2.768 2.768 0 00-2.765 2.764v7.372a2.768 2.768 0 002.765 2.765h2.461l-.953 5.557 8.892-5.557h2.5A2.768 2.768 0 0057 10.136V2.764A2.768 2.768 0 0054.235 0zm.922 10.136a.923.923 0 01-.922.922h-3.029l-5.852 3.657.628-3.657h-4.647a.923.923 0 01-.922-.922V2.764c0-.507.414-.921.922-.921h12.9c.508 0 .922.414.922.921v7.372z" /><path d="M28.434 2.764c-12.04 0-22.411 8.329-25.107 19.946L1.58 19.799 0 20.747l3.239 5.397 5.397-3.239-.948-1.58-2.497 1.498C7.802 12.196 17.359 4.607 28.434 4.607c2.42 0 4.81.36 7.1 1.07l.545-1.76a25.786 25.786 0 00-7.645-1.153zM56.552 20.403l-5.397-3.239-3.238 5.398 1.58.949 1.613-2.688a23.86 23.86 0 011.283 7.743c0 5.48-1.899 10.838-5.344 15.085l1.431 1.16a25.859 25.859 0 005.756-16.245c0-2.819-.455-5.571-1.34-8.207l2.708 1.625.948-1.58z" /></symbol><symbol viewBox="0 0 52 57" id="manufacturing"><path d="M48.114 18.892a25.616 25.616 0 00-3.757-5.22l2.69-3.338a1.158 1.158 0 00-1.803-1.453l-2.549 3.162A25.616 25.616 0 0031.4 6.178v-5.02C31.399.518 30.88 0 30.24 0h-8.698c-.64 0-1.158.518-1.158 1.158V6.06a25.711 25.711 0 00-11.847 5.977L5.994 8.88a1.158 1.158 0 00-1.803 1.453l2.683 3.33A25.498 25.498 0 001.06 23.87C-.877 30.43-.144 37.352 3.124 43.36A25.61 25.61 0 0025.64 56.738 25.645 25.645 0 0047.58 44.3a25.75 25.75 0 003.641-12.553 25.603 25.603 0 00-3.108-12.856zM22.701 2.316h6.382v3.436a25.242 25.242 0 00-6.382-.067v-3.37zm26.206 29.373c-.209 8.308-4.868 15.932-12.16 19.898a23.32 23.32 0 01-11.106 2.835c-8.552 0-16.4-4.663-20.483-12.168-6.136-11.282-1.95-25.452 9.333-31.588A23.32 23.32 0 0125.597 7.83c8.552 0 16.4 4.663 20.483 12.168a23.282 23.282 0 012.827 11.691z" /><path d="M26.182 13.496h.037c.623 0 1.137-.494 1.157-1.12l.02-.631a1.158 1.158 0 10-2.315-.074l-.02.63c-.02.64.482 1.174 1.12 1.195zM15.724 15.102a1.158 1.158 0 102.041-1.093l-.297-.556a1.158 1.158 0 00-2.042 1.093l.298.556zM10.259 20.229l-.536-.333a1.158 1.158 0 00-1.221 1.968l.536.333a1.157 1.157 0 101.221-1.968zM7.989 30.563a1.158 1.158 0 00-1.12-1.194l-.631-.02a1.158 1.158 0 10-.074 2.315l.63.02h.038c.623 0 1.137-.494 1.157-1.121zM8.502 38.98l-.556.298a1.158 1.158 0 101.093 2.04l.556-.297a1.158 1.158 0 10-1.093-2.041zM16.316 46.113a1.158 1.158 0 00-1.594.373l-.333.536a1.158 1.158 0 101.968 1.221l.333-.536a1.158 1.158 0 00-.374-1.594zM25.056 48.756a1.157 1.157 0 00-1.194 1.12l-.02.631a1.158 1.158 0 102.315.074l.02-.63a1.158 1.158 0 00-1.12-1.195zM35.514 47.15a1.158 1.158 0 10-2.041 1.093l.297.556a1.158 1.158 0 102.042-1.093l-.298-.556zM42.736 40.388l-.536-.332a1.158 1.158 0 00-1.221 1.967l.536.333a1.157 1.157 0 101.221-1.968zM45.074 30.588l-.63-.02a1.158 1.158 0 10-.075 2.315l.631.02h.038a1.158 1.158 0 00.036-2.314zM42.19 23.41c.185 0 .372-.044.546-.138l.556-.297a1.158 1.158 0 10-1.093-2.042l-.556.298a1.158 1.158 0 00.547 2.179zM36.475 13.635a1.158 1.158 0 00-1.594.374l-.333.536a1.158 1.158 0 001.968 1.221l.333-.536a1.158 1.158 0 00-.374-1.595zM27.448 28.088a3.676 3.676 0 00-1.895-.527c-.878 0-1.721.32-2.378.874l-8.916-5.66a1.158 1.158 0 00-1.241 1.956l8.947 5.679c-.131.56-.13 1.147.014 1.721a3.657 3.657 0 001.674 2.266 3.676 3.676 0 001.895.527 3.702 3.702 0 003.157-1.784 3.685 3.685 0 00-1.257-5.052zm-.728 3.858a1.363 1.363 0 01-2.494-.374 1.356 1.356 0 01.155-1.033 1.362 1.362 0 011.873-.466c.645.388.854 1.228.466 1.873z" /></symbol><symbol viewBox="0 0 56 57" id="materials"><path d="M27.809 56.228l27.809-10.594-15.33-5.84 15.33-5.84-15.33-5.84 15.33-5.84-15.33-5.84 15.33-5.84L27.809 0 0 10.594l15.33 5.84L0 22.274l15.33 5.84L0 33.954l15.33 5.84L0 45.634l27.809 10.594zM6.562 10.594L27.809 2.5l21.247 8.094-12.049 4.59-9.198 3.504-9.198-3.504-12.05-4.59zm0 11.68l12.049-4.59 9.198 3.504 9.198-3.504 12.05 4.59-12.05 4.59-9.198 3.504-9.198-3.504-12.05-4.59zm0 11.68l12.049-4.59 9.198 3.504 9.198-3.504 12.05 4.59-12.05 4.59-9.198 3.504-9.198-3.504-12.05-4.59zm30.445 7.09l12.05 4.59-21.248 8.094-21.247-8.094 12.049-4.59 9.198 3.504 9.198-3.504z" /></symbol><symbol viewBox="0 0 48 48" id="phone"><defs><path id="phone_a" d="M46.557 37.182l-9-6.014c-1.498-1.002-2.941-.967-4.189.059-3.504 2.873-5.582 2.049-5.92 1.879-1.982-.992-3.854-1.928-6.741-4.813-3.584-3.586-4.878-5.875-5.812-7.74-.373-.746-.803-3.254 1.65-5.869 1.147-1.221 1.253-2.721.299-4.221-.735-1.156-.735-1.156-1.313-2.006-.57-.84-1.709-2.518-4.713-7.014C10.169.473 9.247 0 8 0 6.586 0 5.87.717 5.293 1.293l-3 3C.169 6.416 0 7.633 0 9c0 1.721 2.485 12.939 14.292 24.705C26.061 45.514 37.268 48 38.988 48h.066c1.355-.02 2.559-.199 4.652-2.293l3-3C47.283 42.131 48 41.414 48 40c0-1.248-.473-2.17-1.443-2.818zm-1.264 4.111l-3 3c-1.684 1.684-2.416 1.695-3.305 1.707-.123-.004-10.891-1.273-23.282-13.709C3.415 20.043 2.002 9.096 2 9c0-.887 0-1.586 1.706-3.293l3-3C7.233 2.182 7.443 2 8 2c.653 0 .927.213 1.156.555a976.365 976.365 0 004.721 7.025c.563.828.563.828 1.28 1.957.568.893.302 1.383-.07 1.779-3.121 3.324-2.66 6.771-1.981 8.131 1.003 2.006 2.39 4.463 6.187 8.26 3.115 3.115 5.223 4.168 7.26 5.188.561.279 1.293.434 2.063.434 1.326 0 3.445-.443 6.02-2.555.365-.301.625-.336.789-.336.287 0 .631.133 1.021.395l9 6.012c.341.227.554.501.554 1.155 0 .557-.182.768-.707 1.293z" /></defs><use xlink:href="#phone_a" /></symbol><symbol viewBox="0 0 60 58" id="production"><path d="M40.03 26.388c2.522-1.085 5.055-2.159 7.577-3.245 1.604-.687 3.22-1.375 4.825-2.063.434-.193.88-.374 1.315-.567.072-.036.145-.06.217-.096-.18.072-.277-.109-.277-.024v33.103c0 1.17 1.81 1.17 1.81 0V37.704 20.453c0-.832-.483-1.484-1.291-1.725-.543-.17-1.062.096-1.557.313a514.833 514.833 0 00-3.824 1.641c-3.088 1.327-6.189 2.654-9.277 3.981l-.434.181c-.459.193-.555.857-.326 1.243.277.434.784.494 1.242.301z" /><path d="M25.01 26.388c2.522-1.085 5.056-2.16 7.577-3.245 1.605-.688 3.221-1.375 4.826-2.063.434-.193.88-.374 1.315-.567.072-.036.144-.06.217-.096-.302.132-.278-.23-.278.193v32.874c0 1.17 1.81 1.17 1.81 0V36.377 20.875c0-.977-.23-1.846-1.29-2.171-.544-.17-1.063.096-1.557.313a523.434 523.434 0 00-3.825 1.641c-3.088 1.327-6.188 2.654-9.277 3.981l-.434.181c-.458.193-.555.857-.326 1.243.278.458.796.518 1.243.325z" /><path d="M25.457 53.484V36.377 21.321c0-1.17-1.81-1.17-1.81 0v32.175c0 1.158 1.81 1.158 1.81-.012zM4.008 53.484V37.451 21.309c0-1.17-1.81-1.17-1.81 0v32.175c0 1.17 1.81 1.17 1.81 0zM6.155 17.027v-2.111-1.159-.229c0 .073-.145.12-.109.12h15.478c.193 0-.012.013-.036-.132.12 1.146 0 2.365 0 3.51 0 1.171 1.81 1.171 1.81 0v-2.11c0-.809.157-1.81-.398-2.474-.7-.856-2.16-.603-3.15-.603H6.759c-.35 0-.808-.06-1.158.048-1.315.41-1.291 1.569-1.291 2.69v2.462c.036 1.146 1.846 1.146 1.846-.012z" /><path d="M25.928 16.122H1.739c-2.195 0-1.688 3.004-1.688 4.415 0 .99.832 1.677 1.773 1.677H25.916c.916 0 1.677-.772 1.677-1.689v-1.303-1.4c.012-.988-.736-1.616-1.665-1.7-.495-.048-.905.446-.905.905 0 .53.41.856.905.904-.133-.012-.133-.217-.133-.024V20.55c0-.132.23-.132.036-.132H1.752c.048 0 .12.072.12.12v-.362-2.352s-.205.096-.072.096H25.94c1.146.012 1.146-1.797-.012-1.797z" /><path d="M25.928 17.931c1.17 0 1.17-1.81 0-1.81s-1.17 1.81 0 1.81zM53.108 54.389h2.799c.108 0-.073-.024-.085-.133V56.802c0 1.17 1.81 1.17 1.81 0v-1.738c0-.808.048-1.773-.796-2.231-.676-.362-1.472-.254-2.208-.254h-1.532c-1.158 0-1.158 1.81.012 1.81z" /><path d="M1.86 56.802V54.57v-.302c0 .12-.23.12-.024.12H55.859c.168 0-.025-.216-.025-.023V56.802c0 1.17 1.81 1.17 1.81 0V54.57c0-1.146-.64-1.99-1.858-1.99H3.525c-.76 0-1.605-.133-2.328.096-1.014.313-1.134 1.29-1.134 2.171v1.955c-.012 1.17 1.797 1.17 1.797 0z" /><path d="M.955 57.706h55.76c1.17 0 1.17-1.81 0-1.81H.943c-1.146 0-1.146 1.81.012 1.81zM51.202 41.794v-4.391c0-1.014-.555-1.979-1.701-1.979h-2.003c-1.435 0-4.536-.543-4.536 1.701V41.794c0 1.17 1.81 1.17 1.81 0v-4.017-.627c0 .06-.242.096.048.096h4.476c.337 0 .096.036.096-.12V41.805c0 1.146 1.81 1.146 1.81-.012zM29.752 41.794v-4.017-.628c0 .06-.241.097.048.097h4.476c.338 0 .097.036.097-.12V41.805c0 1.17 1.81 1.17 1.81 0v-4.391c0-1.014-.556-1.979-1.702-1.979H32.48c-1.436 0-4.537-.543-4.537 1.701V41.806c0 1.146 1.81 1.146 1.81-.012zM17.314 5.192v7.54c0 1.17 1.81 1.17 1.81 0v-7.54c0-1.17-1.81-1.17-1.81 0zM10.341 12.732V3.479c0-1.17-1.81-1.17-1.81 0v9.253c0 1.17 1.81 1.17 1.81 0zM34.553 5.276c-.084-1.122-.88-1.845-2.002-1.845h-9c-.977 0-1.23-1.291-.241-1.58.169-.049.41-.013.579-.013h22.945c.218 0 .483-.024.688.06.531.242.628.881.254 1.291-.23.254-.628.302-.869.555-.326.326-.53.712-.579 1.183-.097 1.134.82 2.002 1.918 2.002h9c.663 0 1.303.664.772 1.291-.241.29-.555.29-.893.29H33.697c-.459 0-.917-.374-.845-.881.085-.543.543-.615.93-.88.47-.326.772-.881.772-1.473 0-1.17-1.81-1.17-1.81 0 0 .06-.374.193-.434.23-.314.169-.58.446-.785.736-.458.651-.566 1.435-.386 2.207.278 1.122 1.412 1.882 2.534 1.882H56.233c1.013 0 2.002.085 2.847-.615 1.206-1.001 1.206-2.799.12-3.885-.579-.579-1.375-.711-2.16-.711h-8.878c.012 0-.036-.049-.036-.037 0-.048.422-.229.47-.253.784-.458 1.182-1.327 1.23-2.208C49.9 1.211 48.573.017 47.222.017H24.866c-.832 0-1.87-.121-2.618.29-1.544.868-1.81 2.774-.7 4.089.543.651 1.412.82 2.22.82h8.916c.012 0 .048.048.048.036.108 1.183 1.918 1.195 1.822.024z" /><path d="M9.195 4.36c2.931.567 5.851 1.134 8.782 1.7 1.134.218 1.63-1.52.483-1.749-2.932-.567-5.85-1.134-8.782-1.7-1.135-.218-1.63 1.52-.483 1.749z" /></symbol><symbol viewBox="0 0 56 57" id="stock"><path d="M49.678 57H6.323a.91.91 0 01-.904-.916V28.18H.903a.904.904 0 01-.838-.574.926.926 0 01.213-1.003L27.375.255c.35-.34.9-.34 1.25 0l27.097 26.348c.266.259.35.656.213 1.003a.903.903 0 01-.839.574H50.58v27.904a.91.91 0 01-.902.916zm-9.454-1.832h8.55V27.264a.91.91 0 01.904-.916h3.172L28 2.185 3.15 26.348h3.173a.91.91 0 01.903.916v27.904h8.55V34.743a.91.91 0 01.904-.916h22.64a.91.91 0 01.904.916v20.425zm-22.641 0h20.834v-1.716H17.583v1.716zm0-3.548h20.834v-1.716H17.583v1.716zm0-3.547h20.834v-1.716H17.583v1.716zm0-3.548h20.834v-1.716H17.583v1.716zm0-3.548h20.834v-1.716H17.583v1.716zm0-3.548h20.834v-1.77H17.583v1.77zM36.967 21.8H19.034a.903.903 0 01-.839-.576.925.925 0 01.214-1.002l8.967-8.701a.894.894 0 011.249 0l8.966 8.7a.925.925 0 01.214 1.003.903.903 0 01-.838.575zm-15.683-1.833h13.433L28 13.45l-6.716 6.517z" /></symbol><symbol viewBox="0 0 19 19" id="time"><path fill-rule="evenodd" d="M10.96 9.843l2.44 1.408c.237.138.314.45.18.682a.494.494 0 01-.68.184l-2.48-1.432A1.5 1.5 0 119 8.085V3.503C9 3.225 9.232 3 9.5 3c.276 0 .5.233.5.503v4.582a1.5 1.5 0 01.96 1.758zM9.5 19a9.5 9.5 0 100-19 9.5 9.5 0 000 19zm0-1a8.5 8.5 0 100-17 8.5 8.5 0 000 17z" /></symbol></defs></svg>